<?xml version="1.0" standalone="no"?>
<!DOCTYPE svg PUBLIC "-//W3C//DTD SVG 20010904//EN"
 "http://www.w3.org/TR/2001/REC-SVG-20010904/DTD/svg10.dtd">
<svg version="1.0" xmlns="http://www.w3.org/2000/svg"
 width="300.000000pt" height="172.000000pt" viewBox="0 0 300.000000 172.000000"
 preserveAspectRatio="xMidYMid meet">
<metadata>
Created by potrace 1.10, written by Peter Selinger 2001-2011
</metadata>
<g transform="translate(0.000000,172.000000) scale(0.100000,-0.100000)"
fill="#000000" stroke="none">
<path d="M1570 1615 c-18 -46 -54 -92 -108 -134 -61 -49 -66 -74 -23 -123 54
-63 66 -111 34 -141 -10 -8 -65 -39 -123 -67 -226 -112 -267 -172 -205 -296
37 -74 67 -96 201 -148 141 -55 182 -82 206 -134 38 -82 18 -177 -53 -244 -34
-32 -49 -54 -49 -72 0 -24 -2 -25 -27 -15 -15 6 -31 15 -35 22 -4 6 -10 8 -14
4 -12 -11 16 -35 61 -52 40 -16 45 -16 68 0 29 18 77 78 77 94 0 21 -15 9 -53
-40 -21 -27 -42 -47 -47 -44 -22 14 -7 50 39 94 53 50 71 93 71 173 0 109 -53
165 -207 219 -48 17 -105 40 -125 50 -61 31 -118 122 -118 190 0 49 63 102
215 178 88 45 134 74 144 92 20 37 7 93 -35 138 -19 21 -34 44 -34 51 0 7 33
45 73 84 50 48 77 83 84 109 13 42 -2 52 -17 12z"/>
<path d="M2355 1519 c-4 -6 -4 -26 -1 -45 6 -28 4 -34 -10 -34 -10 0 -15 -3
-11 -6 3 -3 14 -3 25 0 14 5 19 17 20 51 2 42 -9 58 -23 34z"/>
<path d="M2531 1508 c-1 -18 -7 -28 -16 -28 -7 0 -18 -8 -24 -17 -9 -17 -11
-16 -30 1 -16 14 -24 17 -33 8 -13 -13 -3 -46 12 -37 6 3 28 7 50 7 29 0 40 4
40 16 0 13 3 12 15 -4 14 -18 15 -17 9 11 -4 17 -11 39 -15 50 -7 17 -8 16 -8
-7z"/>
<path d="M2071 1508 c-1 -9 -6 -20 -13 -24 -7 -4 -8 -3 -4 4 4 7 2 12 -3 12
-6 0 -11 -7 -11 -15 0 -8 7 -15 15 -15 8 0 15 -5 15 -12 0 -6 -3 -8 -7 -5 -3
4 -13 2 -20 -5 -11 -9 -17 -9 -24 3 -7 11 -9 9 -9 -8 0 -25 7 -28 30 -13 8 5
17 5 20 0 3 -5 11 -6 18 -1 8 5 9 19 3 51 -5 25 -9 37 -10 28z"/>
<path d="M2720 1510 c0 -5 6 -9 13 -7 8 1 11 -11 9 -45 -2 -27 0 -48 6 -48 5
0 7 11 4 25 -2 14 1 32 8 40 10 12 10 18 0 30 -14 17 -40 20 -40 5z"/>
<path d="M1690 1468 c5 -24 9 -44 9 -45 1 -2 1 -13 1 -25 0 -14 4 -18 9 -12
13 12 -1 116 -15 121 -8 3 -9 -9 -4 -39z"/>
<path d="M1770 1463 c0 -44 -1 -45 -18 -30 -10 10 -22 14 -25 10 -10 -10 -8
-25 2 -19 5 3 14 -1 21 -9 21 -26 28 -17 32 40 1 30 0 55 -4 55 -5 0 -8 -21
-8 -47z"/>
<path d="M2160 1496 c0 -9 -6 -16 -12 -16 -10 0 -10 -2 -2 -8 7 -4 14 -18 17
-32 l4 -25 2 27 c0 14 7 28 13 30 9 3 8 9 -5 22 -15 15 -17 15 -17 2z"/>
<path d="M2201 1473 c0 -24 4 -43 9 -43 6 0 10 7 10 15 0 21 20 19 21 -2 0
-16 1 -16 8 1 7 18 8 18 14 3 9 -25 41 -22 34 3 -3 10 0 21 7 24 6 2 3 5 -6 5
-9 1 -20 -4 -23 -9 -4 -7 -13 -7 -26 0 -11 6 -23 8 -28 5 -5 -3 -12 5 -14 17
-2 13 -5 4 -6 -19z"/>
<path d="M1802 1450 c-1 -45 1 -50 9 -31 9 23 10 24 25 5 15 -18 15 -18 10 -1
-3 10 -6 21 -6 23 0 2 -6 4 -14 4 -8 0 -17 12 -19 28 -2 15 -4 2 -5 -28z"/>
<path d="M2581 1473 c-1 -6 2 -19 5 -27 6 -15 8 -15 20 1 11 15 13 15 14 3 0
-12 2 -13 9 -1 7 11 13 8 26 -13 18 -28 39 -34 51 -14 5 8 2 9 -9 5 -24 -9
-33 14 -12 29 10 8 16 17 12 20 -4 4 -14 1 -23 -6 -12 -11 -17 -11 -23 -1 -6
8 -15 9 -34 2 -18 -7 -27 -7 -31 2 -3 9 -5 9 -5 0z"/>
<path d="M1896 1438 c4 -12 0 -18 -11 -18 -11 0 -15 5 -11 15 3 8 1 15 -5 15
-16 0 -6 -44 11 -47 20 -4 36 8 44 32 5 16 2 21 -14 21 -15 0 -18 -5 -14 -18z"/>
<path d="M1940 1445 c-6 -8 -9 -19 -5 -25 8 -13 35 -13 35 0 0 6 -5 10 -11 10
-8 0 -8 5 1 15 7 8 8 15 2 15 -5 0 -15 -7 -22 -15z"/>
<path d="M185 988 c-26 -72 -44 -132 -40 -136 4 -4 10 10 30 67 3 7 13 11 25
8 10 -3 21 0 23 7 2 6 2 1 0 -11 -4 -27 12 -30 26 -5 6 9 11 13 11 8 0 -5 7
-3 15 4 12 10 15 10 15 -4 0 -9 5 -16 11 -16 6 0 8 9 3 23 -9 30 -8 29 -38 18
-17 -7 -26 -7 -26 -1 0 6 -7 10 -15 10 -8 0 -15 9 -15 20 0 22 -18 27 -25 8z"/>
<path d="M384 976 c4 -16 2 -26 -4 -26 -7 0 -6 -6 2 -14 9 -10 15 -11 21 -2 5
8 9 8 15 0 11 -17 53 -24 58 -10 7 18 42 17 48 -2 2 -9 4 -6 3 8 -2 20 -8 25
-34 27 -18 2 -35 -2 -39 -9 -4 -7 -3 -8 4 -4 7 4 12 2 12 -3 0 -14 -17 -14
-25 -1 -3 6 -15 10 -26 10 -12 0 -19 7 -19 19 0 11 -5 23 -11 27 -9 5 -10 -1
-5 -20z"/>
<path d="M610 990 c-12 -8 -9 -10 13 -10 15 0 27 -4 27 -10 0 -5 -4 -10 -10
-10 -5 0 -10 -10 -9 -22 0 -16 2 -18 6 -8 4 8 13 20 22 26 13 10 13 14 2 28
-15 18 -29 20 -51 6z"/>
<path d="M321 958 c-1 -31 2 -38 18 -38 14 0 20 9 23 35 2 22 0 34 -6 32 -6
-2 -10 -11 -8 -21 2 -9 -2 -16 -7 -16 -5 0 -12 10 -14 23 -3 13 -5 8 -6 -15z"/>
<path d="M550 956 c0 -8 6 -17 13 -19 7 -3 5 -6 -5 -6 -21 -1 -24 -21 -4 -21
21 0 30 19 16 34 -8 11 -8 15 2 19 8 4 7 6 -4 6 -10 1 -18 -5 -18 -13z"/>
<path d="M1654 560 c-12 -5 -24 -16 -28 -26 -10 -25 1 -29 14 -5 12 24 45 28
53 6 7 -18 -13 -32 -22 -16 -5 7 -13 -5 -20 -30 -7 -22 -10 -43 -8 -45 3 -3 7
6 11 19 3 13 17 29 31 35 29 14 32 33 8 54 -12 11 -25 13 -39 8z"/>
<path d="M1948 528 c-6 -38 0 -68 14 -68 6 0 8 6 5 14 -3 8 -1 17 6 20 9 3 9
7 -1 14 -7 5 -10 16 -7 24 4 9 2 19 -3 22 -5 3 -12 -9 -14 -26z"/>
<path d="M2080 533 c29 -11 40 -43 15 -43 -10 0 -15 -9 -14 -27 0 -16 3 -21 6
-13 3 8 12 20 20 27 23 18 9 63 -20 62 -15 0 -17 -2 -7 -6z"/>
<path d="M1791 508 c0 -10 -9 -18 -18 -19 -11 0 -13 -3 -5 -6 6 -2 12 -12 12
-21 1 -15 2 -15 13 -1 7 8 20 18 30 22 15 6 17 3 12 -16 -6 -21 -5 -21 9 -4 9
12 16 14 21 8 8 -13 35 -15 35 -2 0 5 -11 12 -25 15 -14 4 -25 11 -25 17 0 6
-6 6 -19 -1 -26 -13 -29 -13 -34 8 -4 16 -5 16 -6 0z"/>
<path d="M1690 485 c-15 -18 -3 -38 17 -31 9 4 22 1 31 -6 13 -11 14 -9 7 12
-12 39 -35 50 -55 25z"/>
<path d="M1992 478 c2 -13 11 -24 21 -26 22 -4 34 25 17 41 -10 10 -12 8 -7
-5 4 -12 1 -18 -9 -18 -10 0 -14 6 -10 15 3 8 1 15 -5 15 -6 0 -9 -10 -7 -22z"/>
<path d="M2065 399 c-8 -12 14 -31 29 -26 6 2 12 10 14 18 3 8 1 11 -3 7 -5
-4 -14 -3 -21 3 -8 7 -14 6 -19 -2z"/>
</g>
</svg>
