<?xml version="1.0" standalone="no"?>
<!DOCTYPE svg PUBLIC "-//W3C//DTD SVG 20010904//EN"
 "http://www.w3.org/TR/2001/REC-SVG-20010904/DTD/svg10.dtd">
<svg version="1.0" xmlns="http://www.w3.org/2000/svg"
 width="300.000000pt" height="110.000000pt" viewBox="0 0 300.000000 110.000000"
 preserveAspectRatio="xMidYMid meet">
<metadata>
Created by potrace 1.10, written by Peter Selinger 2001-2011
</metadata>
<g transform="translate(0.000000,110.000000) scale(0.100000,-0.100000)"
fill="#000000" stroke="none">
<path d="M1019 865 c-36 -19 -91 -57 -122 -85 -50 -46 -63 -52 -134 -66 -49
-10 -138 -17 -240 -18 -90 0 -163 -4 -163 -8 0 -5 57 -8 128 -8 117 1 188 7
301 26 l44 7 -53 -69 c-29 -37 -54 -74 -57 -81 -4 -10 -36 -13 -127 -13 -239
-1 -334 -26 -418 -112 -90 -91 -111 -145 -87 -219 19 -57 34 -67 87 -62 175
16 258 59 387 196 53 56 107 120 121 142 l26 40 86 0 c99 0 172 18 204 50 13
12 34 25 47 28 18 4 21 3 12 -6 -52 -52 80 -98 185 -64 27 9 78 18 113 20 55
4 69 9 105 40 44 37 111 138 104 158 -2 7 -16 -8 -30 -32 -43 -73 -120 -149
-150 -149 -15 0 -33 -3 -42 -6 -12 -5 -16 1 -16 23 0 31 -26 63 -50 63 -8 0
-29 -10 -47 -22 -42 -29 -41 -60 2 -69 27 -5 28 -7 10 -15 -37 -16 -129 -10
-159 9 l-28 19 26 27 c36 38 33 43 -14 25 -38 -16 -42 -15 -54 1 -10 14 -16
15 -34 6 -29 -16 -28 -23 3 -15 17 4 25 2 25 -6 0 -9 -11 -11 -35 -7 -19 3
-37 1 -40 -4 -4 -5 11 -9 32 -9 36 -1 37 -1 18 -16 -32 -24 -91 -35 -176 -32
l-81 3 61 82 c44 58 69 83 89 87 15 3 58 11 96 17 56 9 76 18 107 46 42 38 50
71 23 97 -8 9 -16 16 -17 16 -1 -1 -32 -16 -68 -35z m86 -6 c6 -16 -1 -30 -28
-57 -31 -31 -46 -37 -129 -52 l-93 -18 45 39 c45 39 164 108 187 109 6 0 15
-10 18 -21z m215 -261 c0 -24 -16 -29 -60 -20 -48 11 -52 38 -8 56 29 13 35
12 51 -1 9 -9 17 -25 17 -35z m-626 -70 c-36 -62 -192 -233 -250 -274 -59 -42
-151 -73 -241 -81 l-71 -6 -16 31 c-26 50 -21 116 13 165 93 136 190 173 459
176 88 1 112 -2 106 -11z"/>
<path d="M2719 714 c-80 -83 -226 -175 -301 -189 -41 -8 -79 8 -117 49 -31 32
-45 33 -88 0 -18 -14 -33 -20 -33 -15 0 6 -11 18 -25 27 -24 16 -27 15 -60
-10 l-35 -27 0 26 c0 15 -5 35 -11 46 -10 20 -12 19 -75 -15 -35 -20 -63 -30
-61 -23 1 7 -11 13 -30 15 -26 3 -40 -5 -79 -43 l-48 -45 -62 30 c-35 16 -72
30 -84 30 -17 0 -11 11 39 73 32 39 57 74 55 76 -2 2 -24 -15 -48 -37 -46 -43
-192 -122 -232 -126 -12 -1 -29 -7 -36 -13 -7 -6 -44 -24 -82 -39 -72 -28
-136 -76 -136 -100 0 -17 20 -18 74 -2 27 8 61 32 99 70 43 43 78 66 131 88
40 17 94 44 120 61 l47 29 -32 -40 c-18 -22 -41 -42 -53 -46 -32 -10 -86 -53
-86 -69 0 -30 22 -24 65 20 26 25 55 45 67 45 12 0 50 -14 85 -31 82 -40 131
-37 206 14 65 43 137 80 144 74 8 -8 7 -71 -1 -102 l-8 -30 20 30 c21 34 63
65 86 65 8 0 23 -12 33 -26 l19 -26 33 31 c39 37 42 37 66 11 40 -44 84 -63
132 -56 79 11 261 126 321 204 32 42 24 41 -19 -4z m-821 -141 c-3 -16 -50
-44 -97 -58 -32 -10 -20 8 31 46 46 32 71 37 66 12z m-537 -71 c-15 -28 -75
-71 -122 -87 -45 -16 -55 -14 -46 9 4 11 158 95 175 96 1 0 -2 -8 -7 -18z"/>
</g>
</svg>
